<?xml version="1.0" encoding="UTF-8" standalone="no"?>
<!-- Created with Inkscape (http://www.inkscape.org/) -->

<svg
   width="300mm"
   height="300.54156mm"
   viewBox="0 0 300 300.54156"
   version="1.1"
   id="svg1"
   xml:space="preserve"
   inkscape:version="1.3.2 (091e20e, 2023-11-25, custom)"
   sodipodi:docname="black-svg.svg"
   xmlns:inkscape="http://www.inkscape.org/namespaces/inkscape"
   xmlns:sodipodi="http://sodipodi.sourceforge.net/DTD/sodipodi-0.dtd"
   xmlns:xlink="http://www.w3.org/1999/xlink"
   xmlns="http://www.w3.org/2000/svg"
   xmlns:svg="http://www.w3.org/2000/svg"><sodipodi:namedview
     id="namedview1"
     pagecolor="#ffffff"
     bordercolor="#000000"
     borderopacity="0.25"
     inkscape:showpageshadow="2"
     inkscape:pageopacity="0.0"
     inkscape:pagecheckerboard="0"
     inkscape:deskcolor="#d1d1d1"
     inkscape:document-units="mm"
     inkscape:zoom="0.17307277"
     inkscape:cx="1383.811"
     inkscape:cy="2088.7168"
     inkscape:window-width="2560"
     inkscape:window-height="1334"
     inkscape:window-x="-11"
     inkscape:window-y="-11"
     inkscape:window-maximized="1"
     inkscape:current-layer="layer1" /><defs
     id="defs1"><linearGradient
       id="linearGradient142"
       inkscape:collect="always"><stop
         style="stop-color:#00baff;stop-opacity:1;"
         offset="0"
         id="stop143" /><stop
         style="stop-color:#001bff;stop-opacity:1;"
         offset="0.11879699"
         id="stop145" /><stop
         style="stop-color:#8a00ff;stop-opacity:1;"
         offset="0.24360904"
         id="stop146" /><stop
         style="stop-color:#ff00f1;stop-opacity:1;"
         offset="0.35789475"
         id="stop147" /><stop
         style="stop-color:#ff0078;stop-opacity:1;"
         offset="0.47669178"
         id="stop148" /><stop
         style="stop-color:#ff0100;stop-opacity:1;"
         offset="0.5984962"
         id="stop149" /><stop
         style="stop-color:#ff4f00;stop-opacity:1;"
         offset="0.72330827"
         id="stop150" /><stop
         style="stop-color:#fff400;stop-opacity:1;"
         offset="0.84210533"
         id="stop144" /><stop
         style="stop-color:#1cff00;stop-opacity:1;"
         offset="1"
         id="stop151" /></linearGradient><linearGradient
       id="linearGradient26"
       inkscape:collect="always"><stop
         style="stop-color:#c8c8c8;stop-opacity:1;"
         offset="0"
         id="stop27" /><stop
         style="stop-color:#000000;stop-opacity:1;"
         offset="0.20300752"
         id="stop23" /><stop
         style="stop-color:#c4c4c4;stop-opacity:0.96237624;"
         offset="0.50225562"
         id="stop24" /><stop
         style="stop-color:#000000;stop-opacity:1;"
         offset="0.83157897"
         id="stop25" /><stop
         style="stop-color:#000000;stop-opacity:0;"
         offset="1"
         id="stop26" /></linearGradient><linearGradient
       id="linearGradient11"
       inkscape:collect="always"><stop
         style="stop-color:#000000;stop-opacity:0.79603958;"
         offset="0"
         id="stop12" /><stop
         style="stop-color:#707070;stop-opacity:0.8178218;"
         offset="0.41353384"
         id="stop14" /><stop
         style="stop-color:#000000;stop-opacity:0.85940593;"
         offset="1"
         id="stop13" /></linearGradient><linearGradient
       inkscape:collect="always"
       xlink:href="#linearGradient26"
       id="linearGradient13"
       x1="840.38904"
       y1="386.75302"
       x2="1058.3812"
       y2="179.80409"
       gradientUnits="userSpaceOnUse"
       gradientTransform="translate(-154.40278,333.18944)" /><radialGradient
       inkscape:collect="always"
       xlink:href="#linearGradient11"
       id="radialGradient26"
       cx="1278.4248"
       cy="272.08566"
       fx="1278.4248"
       fy="272.08566"
       r="150.00027"
       gradientTransform="matrix(1,0,0,1.0018034,69.181953,20.048002)"
       gradientUnits="userSpaceOnUse" /><filter
       inkscape:label="In and Out"
       inkscape:menu="Shadows and Glows"
       inkscape:menu-tooltip="Inner colorized shadow, outer black shadow"
       style="color-interpolation-filters:sRGB;"
       id="filter29"
       x="-0.032000036"
       y="-0.031942336"
       width="1.0806668"
       height="1.0805213"><feGaussianBlur
         result="result0"
         in="SourceAlpha"
         stdDeviation="4"
         id="feGaussianBlur29" /><feOffset
         dx="5"
         dy="5"
         result="result4"
         id="feOffset29" /><feComposite
         in="SourceGraphic"
         in2="result4"
         operator="xor"
         result="result3"
         id="feComposite29" /></filter><filter
       inkscape:menu-tooltip="In and out glow with a possible offset and colorizable flood"
       inkscape:menu="Shadows and Glows"
       inkscape:label="Cutout Glow"
       style="color-interpolation-filters:sRGB;"
       id="filter31"
       x="-0.023999999"
       y="-0.023956752"
       width="1.058"
       height="1.0578955"><feOffset
         dy="3"
         dx="3"
         id="feOffset31" /><feGaussianBlur
         stdDeviation="3"
         result="blur"
         id="feGaussianBlur31" /><feFlood
         flood-color="rgb(0,0,0)"
         flood-opacity="1"
         result="flood"
         id="feFlood31" /><feComposite
         in="flood"
         in2="SourceGraphic"
         operator="in"
         result="composite"
         id="feComposite31" /><feBlend
         in="blur"
         in2="composite"
         mode="normal"
         id="feBlend31" /></filter><filter
       inkscape:menu-tooltip="3D warped, iridescent pearly shell texture"
       inkscape:menu="Materials"
       inkscape:label="3D Mother of Pearl"
       width="1.128"
       x="-0.063999996"
       height="1.1277693"
       y="-0.063884671"
       style="color-interpolation-filters:sRGB;"
       id="filter39"><feGaussianBlur
         result="result8"
         stdDeviation="3"
         id="feGaussianBlur36" /><feTurbulence
         baseFrequency="0.03 0.03"
         numOctaves="8"
         type="fractalNoise"
         result="result7"
         seed="77"
         id="feTurbulence36" /><feColorMatrix
         values="1 0 0 0 0 0 1 0 0 0 0 0 1 0 0 0 0 0 1.6 -0.6 "
         result="result5"
         id="feColorMatrix36" /><feComposite
         in2="result8"
         operator="in"
         in="result7"
         result="result6"
         id="feComposite36" /><feDisplacementMap
         in2="result6"
         result="result4"
         scale="60"
         yChannelSelector="A"
         xChannelSelector="A"
         in="result5"
         id="feDisplacementMap36" /><feConvolveMatrix
         order="3 3"
         kernelMatrix="2 0 0 0 4 0 0 0 -2 "
         targetX="2"
         targetY="2"
         divisor="2"
         result="result9"
         id="feConvolveMatrix36" /><feComposite
         in2="SourceGraphic"
         operator="atop"
         in="result9"
         result="result10"
         id="feComposite37" /><feBlend
         in2="result10"
         mode="darken"
         result="fbSourceGraphic"
         id="feBlend37" /><feGaussianBlur
         result="result0"
         in="fbSourceGraphic"
         stdDeviation="5"
         id="feGaussianBlur37" /><feSpecularLighting
         specularExponent="25"
         specularConstant="1"
         surfaceScale="5"
         lighting-color="rgb(242,215,108)"
         result="result1"
         in="result0"
         id="feSpecularLighting37"><feDistantLight
           azimuth="235"
           elevation="60"
           id="feDistantLight37" /></feSpecularLighting><feComposite
         operator="in"
         result="result2"
         in="result1"
         in2="fbSourceGraphic"
         id="feComposite38" /><feComposite
         k3="1"
         k2="1"
         operator="arithmetic"
         result="result4"
         in="fbSourceGraphic"
         in2="result2"
         id="feComposite39" /></filter><filter
       inkscape:label="Flex Metal"
       inkscape:menu="Materials"
       inkscape:menu-tooltip="Bright, polished uneven metal casting, colorizable"
       height="1.0798558"
       y="-0.03992792"
       width="1.0800001"
       x="-0.040000064"
       style="color-interpolation-filters:sRGB;"
       id="filter56"><feGaussianBlur
         stdDeviation="5"
         result="result8"
         id="feGaussianBlur53" /><feTurbulence
         seed="25"
         result="result7"
         type="turbulence"
         numOctaves="2"
         baseFrequency="0.03"
         id="feTurbulence53" /><feComposite
         in2="result8"
         result="result6"
         operator="in"
         in="result8"
         id="feComposite53" /><feDisplacementMap
         in="result7"
         in2="result6"
         xChannelSelector="A"
         yChannelSelector="A"
         scale="120"
         result="result4"
         id="feDisplacementMap53" /><feComposite
         in2="result4"
         result="result2"
         operator="arithmetic"
         in="SourceGraphic"
         k1="2"
         k3="2.5"
         k2="0.25"
         id="feComposite54" /><feComposite
         result="fbSourceGraphic"
         in="result2"
         operator="in"
         in2="SourceGraphic"
         id="feComposite55" /><feBlend
         mode="screen"
         in2="fbSourceGraphic"
         result="result91"
         id="feBlend55" /><feBlend
         mode="multiply"
         in2="result91"
         id="feBlend56" /></filter><filter
       inkscape:label="Metallized Paint"
       inkscape:menu="Materials"
       inkscape:menu-tooltip="Metallized effect with a soft lighting, slightly translucent at the edges"
       style="color-interpolation-filters:sRGB;"
       id="filter88"
       x="-0.092000125"
       y="-0.091834214"
       width="1.1840003"
       height="1.1836684"><feGaussianBlur
         stdDeviation="1"
         result="result1"
         id="feGaussianBlur83" /><feComposite
         in="result1"
         in2="result1"
         result="result4"
         operator="in"
         id="feComposite83" /><feBlend
         in="result1"
         mode="screen"
         result="result5"
         in2="result4"
         id="feBlend83" /><feGaussianBlur
         stdDeviation="8"
         result="result6"
         in="result5"
         id="feGaussianBlur84" /><feComposite
         operator="atop"
         in="result6"
         in2="result5"
         result="result8"
         id="feComposite84" /><feComposite
         operator="in"
         result="fbSourceGraphic"
         in="result6"
         in2="result8"
         id="feComposite85" /><feGaussianBlur
         result="result0"
         in="fbSourceGraphic"
         stdDeviation="2.5"
         id="feGaussianBlur85" /><feSpecularLighting
         specularExponent="45"
         specularConstant="1.5"
         surfaceScale="1"
         lighting-color="rgb(255,255,255)"
         result="result1"
         in="result0"
         id="feSpecularLighting85"><fePointLight
           z="21000"
           y="-9000"
           x="-6000"
           id="fePointLight85" /></feSpecularLighting><feComposite
         operator="in"
         result="result2"
         in="result1"
         in2="fbSourceGraphic"
         id="feComposite86" /><feComposite
         k3="1"
         k2="1"
         operator="arithmetic"
         result="result4"
         in="fbSourceGraphic"
         in2="result2"
         id="feComposite87" /><feComposite
         operator="in"
         in="result9"
         in2="result4"
         result="result91"
         id="feComposite88" /><feBlend
         mode="multiply"
         in2="result91"
         id="feBlend88" /></filter><filter
       inkscape:label="Aluminium Emboss"
       inkscape:menu-tooltip="Satiny aluminium effect with embossing"
       inkscape:menu="Non-Realistic 3D Shaders"
       height="1.0798558"
       y="-0.03992792"
       width="1.0799998"
       x="-0.039999916"
       style="color-interpolation-filters:sRGB"
       id="filter122"><feGaussianBlur
         stdDeviation="5"
         result="result8"
         in="SourceGraphic"
         id="feGaussianBlur116" /><feComposite
         in2="result8"
         operator="xor"
         result="result18"
         id="feComposite116" /><feComposite
         k3="0.5"
         k1="1"
         operator="arithmetic"
         result="result16"
         in2="result18"
         id="feComposite117" /><feComposite
         in2="result8"
         result="result6"
         operator="xor"
         in="result16"
         id="feComposite118" /><feOffset
         result="result17"
         in="result6"
         id="feOffset118" /><feDisplacementMap
         in2="result16"
         in="result17"
         xChannelSelector="A"
         yChannelSelector="A"
         scale="100"
         result="result4"
         id="feDisplacementMap118" /><feComposite
         in2="result4"
         result="result2"
         operator="arithmetic"
         in="result4"
         k3="1"
         id="feComposite119" /><feComposite
         in2="result2"
         result="fbSourceGraphic"
         in="result6"
         operator="in"
         id="feComposite120" /><feComposite
         in2="fbSourceGraphic"
         operator="xor"
         result="result14"
         id="feComposite121" /><feComposite
         result="result15"
         in2="result2"
         operator="in"
         in="result14"
         id="feComposite122" /></filter><filter
       style="color-interpolation-filters:sRGB"
       x="-0.039999997"
       width="1.08"
       y="-0.03992792"
       height="1.0798558"
       inkscape:menu="Non-Realistic 3D Shaders"
       inkscape:menu-tooltip="Embossed chrome effect"
       inkscape:label="Chrome Emboss"
       id="filter130"><feGaussianBlur
         in="SourceGraphic"
         result="result8"
         stdDeviation="5"
         id="feGaussianBlur124" /><feComposite
         result="result18"
         operator="xor"
         in2="result8"
         id="feComposite124" /><feComposite
         in2="result18"
         result="result16"
         operator="arithmetic"
         k1="1"
         k3="0.5"
         id="feComposite125" /><feComposite
         in="result16"
         operator="xor"
         result="result6"
         in2="result8"
         id="feComposite126" /><feOffset
         in="result6"
         result="result17"
         id="feOffset126" /><feDisplacementMap
         result="result4"
         scale="100"
         yChannelSelector="A"
         xChannelSelector="A"
         in="result17"
         in2="result16"
         id="feDisplacementMap126" /><feComposite
         k3="1"
         in="result4"
         operator="arithmetic"
         result="result2"
         in2="result4"
         id="feComposite127" /><feComposite
         operator="in"
         in="result6"
         result="fbSourceGraphic"
         in2="result2"
         id="feComposite128" /><feComposite
         result="result14"
         operator="over"
         in2="fbSourceGraphic"
         id="feComposite129" /><feComposite
         in="result14"
         operator="in"
         in2="result2"
         result="result15"
         id="feComposite130" /></filter><linearGradient
       inkscape:collect="always"
       xlink:href="#linearGradient26"
       id="linearGradient154"
       gradientUnits="userSpaceOnUse"
       gradientTransform="translate(-154.40278,333.18944)"
       x1="840.38904"
       y1="386.75302"
       x2="1058.3812"
       y2="179.80409" /><linearGradient
       inkscape:collect="always"
       xlink:href="#linearGradient142"
       id="linearGradient155"
       gradientUnits="userSpaceOnUse"
       gradientTransform="translate(-1225.3112,-39.207234)"
       x1="1035.606"
       y1="939.80609"
       x2="1335.6056"
       y2="939.80609"
       spreadMethod="pad" /></defs><g
     inkscape:label="Layer 1"
     inkscape:groupmode="layer"
     id="layer1"
     transform="translate(-75.18232,-133.70569)"><ellipse
       style="opacity:0.566942;fill:#ffffff;fill-opacity:1;stroke:none;stroke-width:1.51158"
       id="path132"
       cx="651.2851"
       cy="912.59888"
       rx="275.07901"
       ry="274.40891"
       inkscape:export-filename="path132.png"
       inkscape:export-xdpi="96"
       inkscape:export-ydpi="96" /><path
       style="fill:#000000;stroke-width:8.43938"
       d="m 206.27333,433.87688 c -12.57687,-2.24462 -14.99399,-3.53601 -19.04076,-10.17299 -8.5339,-13.99637 -6.40869,-21.08731 13.9843,-46.65938 24.41141,-30.61106 32.96793,-43.60863 32.96793,-50.07884 0,-12.56354 -9.10778,-6.25282 -50.2186,34.79622 l -40.21465,40.15423 -11.31062,-5.25023 c -30.1669,-14.00303 -41.522839,-35.84861 -27.7421,-53.36792 5.36433,-6.81969 6.90527,-7.21195 45.75147,-11.64659 34.63867,-3.95436 44.90467,-6.14547 51.4262,-10.97634 4.36982,-3.23701 4.3694,-3.27794 -0.0675,-6.67344 -3.39499,-2.59713 -10.62332,-3.43542 -30.14444,-3.49559 -14.12322,-0.0422 -39.96788,-0.73254 -57.43258,-1.53183 l -31.754006,-1.45267 -3.693578,-11.12032 c -4.267203,-12.84743 -4.874416,-36.59212 -1.115349,-43.61605 3.436515,-6.4211 13.830621,-11.56245 23.375723,-11.56245 6.35578,0 11.91235,3.31608 30.81352,18.38923 30.61106,24.41132 43.60854,32.96792 50.07885,32.96792 12.56353,0 6.25281,-9.10777 -34.79632,-50.21868 l -40.15413,-40.21456 5.32693,-11.47621 c 6.50465,-14.01333 19.09435,-28.33951 28.22989,-32.12356 5.2238,-2.16377 8.74015,-2.22842 15.24278,-0.28019 15.70442,4.70513 15.98013,5.47269 23.55658,65.57987 3.05598,24.24448 7.76684,39.70534 12.09802,39.70534 6.24007,0 9.18795,-29.3579 9.23074,-91.92837 l 0.0169,-30.52321 11.12665,-3.69568 c 12.90288,-4.28569 37.44206,-5.01139 44.35484,-1.31182 6.36978,3.409 11.50607,13.83037 11.50607,23.34551 0,6.35578 -3.31608,11.91235 -18.38923,30.81352 -24.41132,30.61106 -32.96792,43.60854 -32.96792,50.07884 0,12.56354 9.10777,6.25282 50.21868,-34.79631 l 40.21458,-40.15414 11.31062,5.25023 c 30.1669,14.00303 41.52275,35.84862 27.74209,53.36792 -5.3644,6.81969 -6.90526,7.21195 -45.75146,11.64659 -34.63869,3.95427 -44.9046,6.14547 -51.42613,10.97634 -4.36991,3.23701 -4.36949,3.27794 0.0675,6.67344 3.42672,2.62144 10.7483,3.43289 31.46605,3.4874 14.85011,0.0422 40.69461,0.72748 57.43217,1.53049 l 30.43189,1.4595 3.66455,11.03272 c 4.15513,12.51011 4.73204,37.00439 1.03416,43.91387 -3.33541,6.23232 -13.83087,11.35493 -23.26458,11.35493 -6.35578,0 -11.91235,-3.31608 -30.81352,-18.38923 -30.61105,-24.41141 -43.60856,-32.96792 -50.07886,-32.96792 -12.56353,0 -6.25282,9.10777 34.79633,50.2186 l 40.15414,40.21464 -5.32694,11.47621 c -6.50465,14.01333 -19.09434,28.33951 -28.22988,32.12356 -5.22381,2.16377 -8.74016,2.22842 -15.24279,0.28019 -15.70443,-4.70512 -15.98014,-5.47269 -23.55659,-65.57987 -3.01379,-23.90994 -7.76297,-39.70542 -11.93818,-39.70542 -5.82621,0 -7.34867,11.5195 -8.70513,65.86639 l -1.41824,56.82174 -10.25038,3.21532 c -11.40835,3.57846 -25.77521,5.44339 -32.57963,4.22905 z m 34.07238,-123.42167 c 4.00263,-2.44034 9.27412,-7.71191 11.71453,-11.71445 15.91422,-26.10139 -15.79834,-57.81387 -41.89974,-41.89974 -9.40248,5.73287 -16.15153,16.93437 -16.15153,26.80709 0,15.75261 15.49157,31.24418 31.24418,31.24418 4.29834,0 11.09002,-1.99667 15.09256,-4.43708 z"
       id="path1"
       sodipodi:nodetypes="csssscssssccccsssssscsssssccsssssscssssccccsssssscsssssscsccssssss"
       inkscape:export-filename="path1.png"
       inkscape:export-xdpi="96"
       inkscape:export-ydpi="96" /><path
       style="fill:#000000;stroke-width:8.43938;filter:url(#filter29)"
       d="m 1260.2315,-73.104017 c -12.5769,-2.24462 -14.994,-3.53601 -19.0408,-10.17299 -8.5339,-13.99637 -6.4087,-21.087313 13.9843,-46.659373 24.4114,-30.61106 32.9679,-43.60863 32.9679,-50.07884 0,-12.56354 -9.1077,-6.25282 -50.2186,34.79622 l -40.2146,40.15422 -11.3106,-5.25022 c -30.1669,-14.00303 -41.5229,-35.84861 -27.7421,-53.36792 5.3643,-6.81969 6.9052,-7.21195 45.7514,-11.64659 34.6387,-3.95436 44.9047,-6.14547 51.4262,-10.97634 4.3699,-3.23701 4.3694,-3.27794 -0.068,-6.67344 -3.3949,-2.59713 -10.6233,-3.43542 -30.1444,-3.49559 -14.1232,-0.0422 -39.9679,-0.73254 -57.4326,-1.53183 l -31.754,-1.45267 -3.6936,-11.12032 c -4.2672,-12.84743 -4.8744,-36.59212 -1.1153,-43.61605 3.4365,-6.4211 13.8306,-11.56245 23.3757,-11.56245 6.3558,0 11.9124,3.31608 30.8135,18.38923 30.6111,24.41132 43.6086,32.96792 50.0789,32.96792 12.5635,0 6.2528,-9.10777 -34.7963,-50.21868 l -40.1542,-40.21456 5.327,-11.47621 c 6.5046,-14.01333 19.0943,-28.33951 28.2299,-32.12356 5.2238,-2.16377 8.7401,-2.22842 15.2427,-0.28019 15.7045,4.70513 15.9802,5.47269 23.5566,65.57987 3.056,24.24448 7.7669,39.70534 12.098,39.70534 6.2401,0 9.188,-29.3579 9.2308,-91.92837 l 0.017,-30.52321 11.1266,-3.69568 c 12.9029,-4.28569 37.4421,-5.01139 44.3549,-1.31182 6.3697,3.409 11.506,13.83037 11.506,23.34551 0,6.35578 -3.316,11.91235 -18.3892,30.81352 -24.4113,30.61106 -32.9679,43.60854 -32.9679,50.07884 0,12.56354 9.1078,6.25282 50.2187,-34.79631 l 40.2145,-40.15414 11.3107,5.25023 c 30.1669,14.00303 41.5227,35.84862 27.7421,53.36792 -5.3644,6.81969 -6.9053,7.21195 -45.7515,11.64659 -34.6387,3.95427 -44.9046,6.14547 -51.4261,10.97634 -4.3699,3.23701 -4.3695,3.27794 0.067,6.67344 3.4267,2.62144 10.7483,3.43289 31.466,3.4874 14.8501,0.0422 40.6946,0.72748 57.4322,1.53049 l 30.4319,1.4595 3.6645,11.03272 c 4.1552,12.51011 4.7321,37.00439 1.0342,43.91387 -3.3354,6.23232 -13.8309,11.35493 -23.2646,11.35493 -6.3558,0 -11.9123,-3.31608 -30.8135,-18.38923 -30.6111,-24.41141 -43.6086,-32.96792 -50.0789,-32.96792 -12.5635,0 -6.2528,9.10777 34.7964,50.2186 l 40.1541,40.21464 -5.3269,11.47621 c -6.5047,14.01333 -19.0944,28.3395 -28.2299,32.123553 -5.2238,2.16377 -8.7402,2.22842 -15.2428,0.28019 -15.7044,-4.705123 -15.9802,-5.472693 -23.5566,-65.579863 -3.0138,-23.90994 -7.763,-39.70542 -11.9382,-39.70542 -5.8262,0 -7.3487,11.5195 -8.7051,65.86639 l -1.4183,56.821733 -10.2503,3.21532 c -11.4084,3.57846 -25.7752,5.44339 -32.5797,4.22905 z m 34.0724,-123.421663 c 4.0026,-2.44034 9.2741,-7.71191 11.7145,-11.71445 15.9142,-26.10139 -15.7984,-57.81387 -41.8998,-41.89974 -9.4024,5.73287 -16.1515,16.93437 -16.1515,26.80709 0,15.75261 15.4916,31.24418 31.2442,31.24418 4.2983,0 11.09,-1.99667 15.0926,-4.43708 z"
       id="path15"
       sodipodi:nodetypes="csssscssssccccsssssscsssssccsssssscssssccccsssssscsssssscsccssssss"
       inkscape:export-filename="path1.png"
       inkscape:export-xdpi="96"
       inkscape:export-ydpi="96" /><path
       style="fill:url(#radialGradient26);stroke-width:8.43938"
       d="m 1328.6968,442.52475 c -12.5768,-2.24462 -14.994,-3.53601 -19.0407,-10.17299 -8.5339,-13.99637 -6.4087,-21.08731 13.9843,-46.65938 24.4114,-30.61106 32.9679,-43.60863 32.9679,-50.07884 0,-12.56354 -9.1078,-6.25282 -50.2186,34.79622 l -40.2146,40.15423 -11.3107,-5.25023 c -30.1669,-14.00303 -41.5228,-35.84861 -27.7421,-53.36792 5.3644,-6.81969 6.9053,-7.21195 45.7515,-11.64659 34.6387,-3.95436 44.9047,-6.14547 51.4262,-10.97634 4.3698,-3.23701 4.3694,-3.27794 -0.067,-6.67344 -3.395,-2.59713 -10.6233,-3.43542 -30.1444,-3.49559 -14.1233,-0.0422 -39.9679,-0.73254 -57.4326,-1.53183 l -31.754,-1.45267 -3.6936,-11.12032 c -4.2672,-12.84743 -4.8744,-36.59212 -1.1153,-43.61605 3.4365,-6.4211 13.8306,-11.56245 23.3757,-11.56245 6.3558,0 11.9123,3.31608 30.8135,18.38923 30.6111,24.41132 43.6085,32.96792 50.0788,32.96792 12.5636,0 6.2529,-9.10777 -34.7963,-50.21868 l -40.1541,-40.21456 5.3269,-11.47621 c 6.5047,-14.01333 19.0944,-28.33951 28.2299,-32.12356 5.2238,-2.16377 8.7402,-2.22842 15.2428,-0.28019 15.7044,4.70513 15.9801,5.47269 23.5566,65.57987 3.056,24.24448 7.7668,39.70534 12.098,39.70534 6.2401,0 9.1879,-29.3579 9.2307,-91.92837 l 0.017,-30.52321 11.1267,-3.69568 c 12.9029,-4.28569 37.442,-5.01139 44.3548,-1.31182 6.3698,3.409 11.5061,13.83037 11.5061,23.34551 0,6.35578 -3.3161,11.91235 -18.3892,30.81352 -24.4114,30.61106 -32.968,43.60854 -32.968,50.07884 0,12.56354 9.1078,6.25282 50.2187,-34.79631 l 40.2146,-40.15414 11.3106,5.25023 c 30.1669,14.00303 41.5227,35.84862 27.7421,53.36792 -5.3644,6.81969 -6.9053,7.21195 -45.7515,11.64659 -34.6386,3.95427 -44.9045,6.14547 -51.4261,10.97634 -4.3699,3.23701 -4.3695,3.27794 0.068,6.67344 3.4267,2.62144 10.7483,3.43289 31.466,3.4874 14.8501,0.0422 40.6946,0.72748 57.4322,1.53049 l 30.4319,1.4595 3.6645,11.03272 c 4.1552,12.51011 4.7321,37.00439 1.0342,43.91387 -3.3354,6.23232 -13.8309,11.35493 -23.2646,11.35493 -6.3558,0 -11.9123,-3.31608 -30.8135,-18.38923 -30.611,-24.41141 -43.6085,-32.96792 -50.0788,-32.96792 -12.5635,0 -6.2528,9.10777 34.7963,50.2186 l 40.1541,40.21464 -5.3269,11.47621 c -6.5047,14.01333 -19.0944,28.33951 -28.2299,32.12356 -5.2238,2.16377 -8.7402,2.22842 -15.2428,0.28019 -15.7044,-4.70512 -15.9801,-5.47269 -23.5565,-65.57987 -3.0138,-23.90994 -7.763,-39.70542 -11.9382,-39.70542 -5.8262,0 -7.3487,11.5195 -8.7052,65.86639 l -1.4182,56.82174 -10.2504,3.21532 c -11.4083,3.57846 -25.7752,5.44339 -32.5796,4.22905 z m 34.0724,-123.42167 c 4.0026,-2.44034 9.2741,-7.71191 11.7145,-11.71445 15.9143,-26.10139 -15.7983,-57.81387 -41.8997,-41.89974 -9.4025,5.73287 -16.1515,16.93437 -16.1515,26.80709 0,15.75261 15.4915,31.24418 31.2442,31.24418 4.2983,0 11.09,-1.99667 15.0925,-4.43708 z"
       id="path23"
       sodipodi:nodetypes="csssscssssccccsssssscsssssccsssssscssssccccsssssscsssssscsccssssss"
       inkscape:export-filename="path1.png"
       inkscape:export-xdpi="96"
       inkscape:export-ydpi="96" /><path
       style="fill:#000000;stroke-width:8.43938;filter:url(#filter31)"
       d="m 690.55359,-58.975178 c -12.57687,-2.24462 -14.99399,-3.53601 -19.04076,-10.17299 -8.5339,-13.996375 -6.40869,-21.087315 13.9843,-46.659382 24.41141,-30.61106 32.96793,-43.60863 32.96793,-50.07884 0,-12.56354 -9.10778,-6.25282 -50.2186,34.79622 l -40.21465,40.154227 -11.31062,-5.25023 c -30.1669,-14.003027 -41.52284,-35.848607 -27.7421,-53.367917 5.36433,-6.81969 6.90527,-7.21195 45.75147,-11.64659 34.63867,-3.95436 44.90467,-6.14547 51.4262,-10.97634 4.36982,-3.23701 4.3694,-3.27794 -0.0675,-6.67344 -3.39499,-2.59713 -10.62332,-3.43542 -30.14444,-3.49559 -14.12322,-0.0422 -39.96788,-0.73254 -57.43258,-1.53183 l -31.75401,-1.45267 -3.69358,-11.12032 c -4.2672,-12.84743 -4.87441,-36.59212 -1.11534,-43.61605 3.43651,-6.4211 13.83062,-11.56245 23.37572,-11.56245 6.35578,0 11.91235,3.31608 30.81352,18.38923 30.61106,24.41132 43.60854,32.96792 50.07885,32.96792 12.56353,0 6.25281,-9.10777 -34.79632,-50.21868 l -40.15413,-40.21456 5.32693,-11.47621 c 6.50465,-14.01333 19.09435,-28.33951 28.22989,-32.12356 5.2238,-2.16377 8.74015,-2.22842 15.24278,-0.28019 15.70442,4.70513 15.98013,5.47269 23.55658,65.57987 3.05598,24.24448 7.76684,39.70534 12.09802,39.70534 6.24007,0 9.18795,-29.3579 9.23074,-91.92837 l 0.0169,-30.52321 11.12665,-3.69568 c 12.90288,-4.28569 37.44206,-5.01139 44.35484,-1.31182 6.36978,3.409 11.50607,13.83037 11.50607,23.34551 0,6.35578 -3.31608,11.91235 -18.38923,30.81352 -24.41132,30.61106 -32.96792,43.60854 -32.96792,50.07884 0,12.56354 9.10777,6.25282 50.21868,-34.79631 l 40.21458,-40.15414 11.31062,5.25023 c 30.1669,14.00303 41.52275,35.84862 27.74209,53.36792 -5.3644,6.81969 -6.90526,7.21195 -45.75146,11.64659 -34.63869,3.95427 -44.9046,6.14547 -51.42613,10.97634 -4.36991,3.23701 -4.36949,3.27794 0.0675,6.67344 3.42672,2.62144 10.7483,3.43289 31.46605,3.4874 14.85011,0.0422 40.69461,0.72748 57.43217,1.53049 l 30.43189,1.4595 3.66455,11.03272 c 4.15513,12.51011 4.73204,37.00439 1.03416,43.91387 -3.33541,6.23232 -13.83087,11.35493 -23.26458,11.35493 -6.35578,0 -11.91235,-3.31608 -30.81352,-18.38923 -30.61105,-24.41141 -43.60856,-32.96792 -50.07886,-32.96792 -12.56353,0 -6.25282,9.10777 34.79633,50.2186 l 40.15414,40.21464 -5.32694,11.47621 c -6.50465,14.01333 -19.09434,28.339507 -28.22988,32.123557 -5.22381,2.16377 -8.74016,2.22842 -15.24279,0.28019 -15.70443,-4.70512 -15.98014,-5.47269 -23.55659,-65.579867 -3.01379,-23.90994 -7.76297,-39.70542 -11.93818,-39.70542 -5.82621,0 -7.34867,11.5195 -8.70513,65.86639 l -1.41824,56.821742 -10.25038,3.21532 c -11.40835,3.57846 -25.77521,5.44339 -32.57963,4.22905 z m 34.07238,-123.421672 c 4.00263,-2.44034 9.27412,-7.71191 11.71453,-11.71445 15.91422,-26.10139 -15.79834,-57.81387 -41.89974,-41.89974 -9.40248,5.73287 -16.15153,16.93437 -16.15153,26.80709 0,15.75261 15.49157,31.24418 31.24418,31.24418 4.29834,0 11.09002,-1.99667 15.09256,-4.43708 z"
       id="path29"
       sodipodi:nodetypes="csssscssssccccsssssscsssssccsssssscssssccccsssssscsssssscsccssssss"
       inkscape:export-filename="path1.png"
       inkscape:export-xdpi="96"
       inkscape:export-ydpi="96" /><path
       style="fill:#000000;stroke-width:8.43938;filter:url(#filter39)"
       d="m 911.6963,-391.6395 c -12.57687,-2.24462 -14.99399,-3.53601 -19.04076,-10.17299 -8.5339,-13.99637 -6.40869,-21.08731 13.9843,-46.65938 24.41141,-30.61106 32.96793,-43.60863 32.96793,-50.07884 0,-12.56354 -9.10778,-6.25282 -50.2186,34.79622 l -40.21465,40.15423 -11.31062,-5.25023 c -30.1669,-14.00303 -41.52284,-35.84861 -27.7421,-53.36792 5.36433,-6.81969 6.90527,-7.21195 45.75147,-11.64659 34.63867,-3.95436 44.90467,-6.14547 51.4262,-10.97634 4.36982,-3.23701 4.3694,-3.27794 -0.0675,-6.67344 -3.39499,-2.59713 -10.62332,-3.43542 -30.14444,-3.49559 -14.12322,-0.0422 -39.96788,-0.73254 -57.43258,-1.53183 l -31.75401,-1.45267 -3.69358,-11.12032 c -4.2672,-12.84743 -4.87441,-36.59212 -1.11535,-43.61605 3.43652,-6.4211 13.83063,-11.56245 23.37573,-11.56245 6.35578,0 11.91235,3.31608 30.81352,18.38923 30.61106,24.41132 43.60854,32.96792 50.07885,32.96792 12.56353,0 6.25281,-9.10777 -34.79632,-50.21868 l -40.15413,-40.21456 5.32693,-11.47621 c 6.50465,-14.01333 19.09435,-28.33951 28.22989,-32.12356 5.2238,-2.16377 8.74015,-2.22842 15.24278,-0.28019 15.70442,4.70513 15.98013,5.47269 23.55658,65.57987 3.05598,24.24448 7.76684,39.70534 12.09802,39.70534 6.24007,0 9.18795,-29.3579 9.23074,-91.92837 l 0.0169,-30.52321 11.12665,-3.69568 c 12.90288,-4.28569 37.44206,-5.01139 44.35484,-1.31182 6.36978,3.409 11.50607,13.83037 11.50607,23.34551 0,6.35578 -3.31608,11.91235 -18.38923,30.81352 -24.41132,30.61106 -32.96792,43.60854 -32.96792,50.07884 0,12.56354 9.10777,6.25282 50.21868,-34.79631 l 40.21461,-40.15414 11.3106,5.25023 c 30.1669,14.00303 41.5227,35.84862 27.7421,53.36792 -5.3644,6.81969 -6.9053,7.21195 -45.7515,11.64659 -34.63867,3.95427 -44.90458,6.14547 -51.42611,10.97634 -4.36991,3.23701 -4.36949,3.27794 0.0675,6.67344 3.42672,2.62144 10.7483,3.43289 31.46605,3.4874 14.85006,0.0422 40.69456,0.72748 57.43216,1.53049 l 30.4319,1.4595 3.6645,11.03272 c 4.1552,12.51011 4.7321,37.00439 1.0342,43.91387 -3.3354,6.23232 -13.8309,11.35493 -23.2646,11.35493 -6.3558,0 -11.9123,-3.31608 -30.8135,-18.38923 -30.61104,-24.41141 -43.60855,-32.96792 -50.07885,-32.96792 -12.56353,0 -6.25282,9.10777 34.79635,50.2186 l 40.1541,40.21464 -5.3269,11.47621 c -6.5047,14.01333 -19.0944,28.33951 -28.2299,32.12356 -5.2238,2.16377 -8.7402,2.22842 -15.2428,0.28019 -15.70442,-4.70512 -15.98013,-5.47269 -23.55658,-65.57987 -3.01379,-23.90994 -7.76297,-39.70542 -11.93818,-39.70542 -5.82621,0 -7.34867,11.5195 -8.70513,65.86639 l -1.41824,56.82174 -10.25038,3.21532 c -11.40835,3.57846 -25.77521,5.44339 -32.57963,4.22905 z m 34.07238,-123.42167 c 4.00263,-2.44034 9.27412,-7.71191 11.71453,-11.71445 15.91422,-26.10139 -15.79834,-57.81387 -41.89974,-41.89974 -9.40248,5.73287 -16.15153,16.93437 -16.15153,26.80709 0,15.75261 15.49157,31.24418 31.24418,31.24418 4.29834,0 11.09002,-1.99667 15.09256,-4.43708 z"
       id="path31"
       sodipodi:nodetypes="csssscssssccccsssssscsssssccsssssscssssccccsssssscsssssscsccssssss"
       inkscape:export-filename="path1.png"
       inkscape:export-xdpi="96"
       inkscape:export-ydpi="96" /><path
       style="fill:#000000;stroke-width:8.43938;filter:url(#filter56)"
       d="m 1490.6977,-521.58589 c -12.5769,-2.24462 -14.994,-3.53601 -19.0408,-10.17299 -8.5339,-13.99637 -6.4087,-21.08731 13.9843,-46.65938 24.4114,-30.61106 32.9679,-43.60863 32.9679,-50.07884 0,-12.56354 -9.1078,-6.25282 -50.2186,34.79622 l -40.2146,40.15423 -11.3106,-5.25023 c -30.1669,-14.00303 -41.5229,-35.84861 -27.7421,-53.36792 5.3643,-6.81969 6.9052,-7.21195 45.7514,-11.64659 34.6387,-3.95436 44.9047,-6.14547 51.4262,-10.97634 4.3698,-3.23701 4.3694,-3.27794 -0.067,-6.67344 -3.395,-2.59713 -10.6233,-3.43542 -30.1444,-3.49559 -14.1232,-0.0422 -39.9679,-0.73254 -57.4326,-1.53183 l -31.754,-1.45267 -3.6936,-11.12032 c -4.2672,-12.84743 -4.8744,-36.59212 -1.1153,-43.61605 3.4365,-6.4211 13.8306,-11.56245 23.3757,-11.56245 6.3558,0 11.9123,3.31608 30.8135,18.38923 30.6111,24.41132 43.6086,32.96792 50.0789,32.96792 12.5635,0 6.2528,-9.10777 -34.7964,-50.21868 l -40.1541,-40.21456 5.3269,-11.47621 c 6.5047,-14.01333 19.0944,-28.33951 28.2299,-32.12356 5.2238,-2.16377 8.7402,-2.22842 15.2428,-0.28019 15.7044,4.70513 15.9801,5.47269 23.5566,65.57987 3.056,24.24448 7.7668,39.70534 12.098,39.70534 6.2401,0 9.188,-29.3579 9.2308,-91.92837 l 0.017,-30.52321 11.1266,-3.69568 c 12.9029,-4.28569 37.4421,-5.01139 44.3548,-1.31182 6.3698,3.409 11.5061,13.83037 11.5061,23.34551 0,6.35578 -3.3161,11.91235 -18.3892,30.81352 -24.4113,30.61106 -32.9679,43.60854 -32.9679,50.07884 0,12.56354 9.1077,6.25282 50.2186,-34.79631 l 40.2146,-40.15414 11.3106,5.25023 c 30.1669,14.00303 41.5228,35.84862 27.7421,53.36792 -5.3644,6.81969 -6.9052,7.21195 -45.7514,11.64659 -34.6387,3.95427 -44.9046,6.14547 -51.4262,10.97634 -4.3699,3.23701 -4.3694,3.27794 0.067,6.67344 3.4268,2.62144 10.7483,3.43289 31.4661,3.4874 14.8501,0.0422 40.6946,0.72748 57.4322,1.53049 l 30.4319,1.4595 3.6645,11.03272 c 4.1551,12.51011 4.732,37.00439 1.0342,43.91387 -3.3354,6.23232 -13.8309,11.35493 -23.2646,11.35493 -6.3558,0 -11.9124,-3.31608 -30.8135,-18.38923 -30.6111,-24.41141 -43.6086,-32.96792 -50.0789,-32.96792 -12.5635,0 -6.2528,9.10777 34.7963,50.2186 l 40.1542,40.21464 -5.327,11.47621 c -6.5046,14.01333 -19.0943,28.33951 -28.2298,32.12356 -5.2239,2.16377 -8.7402,2.22842 -15.2428,0.28019 -15.7045,-4.70512 -15.9802,-5.47269 -23.5566,-65.57987 -3.0138,-23.90994 -7.763,-39.70542 -11.9382,-39.70542 -5.8262,0 -7.3487,11.5195 -8.7051,65.86639 l -1.4183,56.82174 -10.2504,3.21532 c -11.4083,3.57846 -25.7752,5.44339 -32.5796,4.22905 z m 34.0723,-123.42167 c 4.0027,-2.44034 9.2742,-7.71191 11.7146,-11.71445 15.9142,-26.10139 -15.7984,-57.81387 -41.8998,-41.89974 -9.4025,5.73287 -16.1515,16.93437 -16.1515,26.80709 0,15.75261 15.4916,31.24418 31.2442,31.24418 4.2983,0 11.09,-1.99667 15.0925,-4.43708 z"
       id="path39"
       sodipodi:nodetypes="csssscssssccccsssssscsssssccsssssscssssccccsssssscsssssscsccssssss"
       inkscape:export-filename="path1.png"
       inkscape:export-xdpi="96"
       inkscape:export-ydpi="96" /><path
       style="fill:#474747;stroke-width:8.43938;filter:url(#filter88);fill-opacity:1"
       d="m 1686.0941,79.209103 c -12.5769,-2.24462 -14.994,-3.53601 -19.0408,-10.17299 -8.5339,-13.99637 -6.4087,-21.08731 13.9843,-46.65938 24.4114,-30.6110605 32.9679,-43.60863 32.9679,-50.07884 0,-12.56354 -9.1078,-6.25282 -50.2186,34.7962195 l -40.2146,40.1542305 -11.3106,-5.25023 c -30.1669,-14.00303 -41.5229,-35.8486105 -27.7421,-53.36792 5.3643,-6.81969 6.9052,-7.21195 45.7514,-11.64659 34.6387,-3.95436 44.9047,-6.14547 51.4262,-10.97634 4.3698,-3.23701 4.3694,-3.27794 -0.068,-6.67344 -3.395,-2.59713 -10.6233,-3.43542 -30.1444,-3.49559 -14.1232,-0.0422 -39.9679,-0.73254 -57.4326,-1.53183 l -31.754,-1.45267 -3.6936,-11.12032 c -4.2672,-12.84743 -4.8744,-36.59212 -1.1153,-43.616053 3.4365,-6.4211 13.8306,-11.56245 23.3757,-11.56245 6.3558,0 11.9123,3.31608 30.8135,18.389233 30.6111,24.41132 43.6086,32.96792 50.0789,32.96792 12.5635,0 6.2528,-9.10777 -34.7964,-50.218683 l -40.1541,-40.21456 5.3269,-11.47621 c 6.5047,-14.01333 19.0944,-28.33951 28.2299,-32.12356 5.2238,-2.16377 8.7402,-2.22842 15.2428,-0.28019 15.7044,4.70513 15.9801,5.47269 23.5566,65.57987 3.056,24.24448 7.7668,39.705343 12.098,39.705343 6.2401,0 9.188,-29.357903 9.2308,-91.928373 l 0.017,-30.52321 11.1266,-3.69568 c 12.9029,-4.28569 37.4421,-5.01139 44.3548,-1.31182 6.3698,3.409 11.5061,13.83037 11.5061,23.34551 0,6.35578 -3.3161,11.91235 -18.3892,30.81352 -24.4113,30.61106 -32.9679,43.60854 -32.9679,50.07884 0,12.56354 9.1077,6.25282 50.2186,-34.79631 l 40.2146,-40.15414 11.3106,5.25023 c 30.1669,14.00303 41.5228,35.84862 27.7421,53.36792 -5.3644,6.81969 -6.9052,7.21195 -45.7514,11.64659 -34.6387,3.95427 -44.9046,6.14547 -51.4262,10.97634 -4.3699,3.23701 -4.3694,3.27794 0.067,6.67344 3.4268,2.621443 10.7483,3.432893 31.4661,3.487403 14.8501,0.0422 40.6946,0.72748 57.4322,1.53049 l 30.4319,1.4595 3.6645,11.03272 c 4.1551,12.51011 4.732,37.00439 1.0342,43.91387 -3.3354,6.23232 -13.8309,11.35493 -23.2646,11.35493 -6.3558,0 -11.9124,-3.31608 -30.8135,-18.38923 -30.6111,-24.41141 -43.6086,-32.96792 -50.0789,-32.96792 -12.5635,0 -6.2528,9.10777 34.7963,50.2186 l 40.1542,40.21464 -5.327,11.47621 c -6.5046,14.01333 -19.0943,28.33951 -28.2298,32.12356 -5.2239,2.16377 -8.7402,2.22842 -15.2428,0.28019 -15.7045,-4.70512 -15.9802,-5.47269 -23.5566,-65.57987 -3.0138,-23.90994 -7.763,-39.70542 -11.9382,-39.70542 -5.8262,0 -7.3487,11.5195 -8.7051,65.86639 l -1.4183,56.82174 -10.2504,3.21532 c -11.4083,3.57846 -25.7752,5.44339 -32.5796,4.22905 z m 34.0723,-123.42167 c 4.0027,-2.44034 9.2742,-7.71191 11.7146,-11.71445 15.9142,-26.10139 -15.7984,-57.813873 -41.8998,-41.89974 -9.4025,5.73287 -16.1515,16.93437 -16.1515,26.80709 0,15.75261 15.4916,31.24418 31.2442,31.24418 4.2983,0 11.09,-1.99667 15.0925,-4.43708 z"
       id="path88"
       sodipodi:nodetypes="csssscssssccccsssssscsssssccsssssscssssccccsssssscsssssscsccssssss"
       inkscape:export-filename="path1.png"
       inkscape:export-xdpi="96"
       inkscape:export-ydpi="96" /><path
       style="opacity:0.566942;fill:#000000;stroke-width:8.43938;filter:url(#filter56)"
       d="m 604.55225,269.48916 c -12.57686,-2.24462 -14.99398,-3.53601 -19.04075,-10.17299 -8.5339,-13.99637 -6.40869,-21.08731 13.9843,-46.65938 24.41145,-30.61106 32.96795,-43.60863 32.96795,-50.07884 0,-12.56354 -9.1078,-6.25282 -50.21862,34.79622 l -40.21465,40.15423 -11.31062,-5.25023 c -30.1669,-14.00303 -41.52284,-35.84861 -27.7421,-53.36792 5.36433,-6.81969 6.90527,-7.21195 45.75147,-11.64659 34.63867,-3.95436 44.90467,-6.14547 51.4262,-10.97634 4.36982,-3.23701 4.36942,-3.27794 -0.0675,-6.67344 -3.39499,-2.59713 -10.62332,-3.43542 -30.14444,-3.49559 -14.12322,-0.0422 -39.96788,-0.73254 -57.43258,-1.53183 l -31.75401,-1.45267 -3.69358,-11.12032 c -4.2672,-12.84743 -4.87441,-36.592124 -1.11535,-43.616054 3.43652,-6.4211 13.83062,-11.56245 23.37573,-11.56245 6.35578,0 11.91235,3.31608 30.81352,18.38923 30.61106,24.411324 43.60854,32.967924 50.07885,32.967924 12.56353,0 6.25281,-9.10777 -34.79632,-50.218684 l -40.15413,-40.21456 5.32693,-11.47621 c 6.50465,-14.01333 19.09435,-28.3395103 28.22989,-32.1235603 5.2238,-2.16377 8.74015,-2.22842 15.24278,-0.28019 15.70442,4.70513 15.98013,5.47269004 23.55658,65.5798703 3.05598,24.24448 7.76684,39.70534 12.09802,39.70534 6.24007,0 9.18795,-29.3579 9.23074,-91.9283703 l 0.0169,-30.5232097 11.12669,-3.69568 c 12.9028,-4.28569 37.442,-5.01139 44.3548,-1.31182 6.3698,3.409 11.5061,13.83037 11.5061,23.3455097 0,6.35578 -3.3161,11.91235 -18.3893,30.8135203 -24.4113,30.61106 -32.9679,43.60854 -32.9679,50.07884 0,12.56354 9.1078,6.25282 50.2187,-34.79631 l 40.2146,-40.15414026 11.3106,5.25022996 c 30.1669,14.0030303 41.5228,35.8486203 27.7421,53.3679203 -5.3644,6.81969 -6.9053,7.21195 -45.7515,11.64659 -34.6387,3.95427 -44.9046,6.14547 -51.4261,10.97634 -4.3699,3.23701 -4.3695,3.27794 0.067,6.67344 3.4267,2.62144 10.7483,3.43289 31.4661,3.4874 14.8501,0.0422 40.6946,0.72748 57.4321,1.53049 l 30.4319,1.4595 3.6646,11.032724 c 4.1551,12.51011 4.732,37.00439 1.0341,43.91387 -3.3354,6.23232 -13.8308,11.35493 -23.2646,11.35493 -6.3557,0 -11.9123,-3.31608 -30.8135,-18.38923 -30.611,-24.41141 -43.6085,-32.96792 -50.0788,-32.96792 -12.5636,0 -6.2529,9.10777 34.7963,50.2186 l 40.1541,40.21464 -5.3269,11.47621 c -6.5047,14.01333 -19.0943,28.33951 -28.2299,32.12356 -5.2238,2.16377 -8.7401,2.22842 -15.2428,0.28019 -15.7044,-4.70512 -15.9801,-5.47269 -23.5566,-65.57987 -3.0138,-23.90994 -7.7629,-39.70542 -11.9381,-39.70542 -5.8263,0 -7.3487,11.5195 -8.7052,65.86639 l -1.4182,56.82174 -10.2504,3.21532 c -11.4083,3.57846 -25.7752,5.44339 -32.5796,4.22905 z m 34.0724,-123.42167 c 4.0026,-2.44034 9.2741,-7.71191 11.7145,-11.71445 15.9142,-26.10139 -15.7983,-57.813874 -41.8997,-41.899744 -9.4025,5.73287 -16.15155,16.934374 -16.15155,26.807094 0,15.75261 15.49155,31.24418 31.24415,31.24418 4.2984,0 11.0901,-1.99667 15.0926,-4.43708 z"
       id="path56"
       sodipodi:nodetypes="csssscssssccccsssssscsssssccsssssscssssccccsssssscsssssscsccssssss"
       inkscape:export-filename="path1.png"
       inkscape:export-xdpi="96"
       inkscape:export-ydpi="96" /><path
       style="fill:#000000;stroke-width:8.43938;filter:url(#filter122)"
       d="m 1735.495,-260.93247 c -12.5769,-2.24462 -14.994,-3.53601 -19.0408,-10.17299 -8.5339,-13.99637 -6.4087,-21.08731 13.9843,-46.65938 24.4114,-30.61106 32.9679,-43.60863 32.9679,-50.07884 0,-12.56354 -9.1077,-6.25282 -50.2186,34.79622 l -40.2146,40.15423 -11.3106,-5.25023 c -30.1669,-14.00303 -41.5229,-35.84861 -27.7421,-53.36792 5.3643,-6.81969 6.9052,-7.21195 45.7514,-11.64659 34.6387,-3.95436 44.9047,-6.14547 51.4262,-10.97634 4.3699,-3.23701 4.3694,-3.27794 -0.067,-6.67344 -3.395,-2.59713 -10.6233,-3.43542 -30.1444,-3.49559 -14.1232,-0.0422 -39.9679,-0.73254 -57.4326,-1.53183 l -31.754,-1.45267 -3.6936,-11.12032 c -4.2672,-12.84743 -4.8744,-36.59212 -1.1153,-43.61605 3.4365,-6.4211 13.8306,-11.56245 23.3757,-11.56245 6.3558,0 11.9124,3.31608 30.8135,18.38923 30.6111,24.41132 43.6086,32.96792 50.0789,32.96792 12.5635,0 6.2528,-9.10777 -34.7963,-50.21868 l -40.1542,-40.21456 5.327,-11.47621 c 6.5046,-14.01333 19.0943,-28.33951 28.2298,-32.12356 5.2238,-2.16377 8.7402,-2.22842 15.2428,-0.28019 15.7044,4.70513 15.9802,5.47269 23.5566,65.57987 3.056,24.24448 7.7668,39.70534 12.098,39.70534 6.2401,0 9.188,-29.3579 9.2308,-91.92837 l 0.017,-30.52321 11.1266,-3.69568 c 12.9029,-4.28569 37.4421,-5.01139 44.3549,-1.31182 6.3697,3.409 11.506,13.83037 11.506,23.34551 0,6.35578 -3.3161,11.91235 -18.3892,30.81352 -24.4113,30.61106 -32.9679,43.60854 -32.9679,50.07884 0,12.56354 9.1077,6.25282 50.2187,-34.79631 l 40.2145,-40.15414 11.3107,5.25023 c 30.1669,14.00303 41.5227,35.84862 27.742,53.36792 -5.3644,6.81969 -6.9052,7.21195 -45.7514,11.64659 -34.6387,3.95427 -44.9046,6.14547 -51.4261,10.97634 -4.37,3.23701 -4.3695,3.27794 0.068,6.67344 3.4267,2.62144 10.7483,3.43289 31.466,3.4874 14.8501,0.0422 40.6946,0.72748 57.4322,1.53049 l 30.4319,1.4595 3.6645,11.03272 c 4.1551,12.51011 4.7321,37.00439 1.0342,43.91387 -3.3354,6.23232 -13.8309,11.35493 -23.2646,11.35493 -6.3558,0 -11.9124,-3.31608 -30.8135,-18.38923 -30.6111,-24.41141 -43.6086,-32.96792 -50.0789,-32.96792 -12.5635,0 -6.2528,9.10777 34.7963,50.2186 l 40.1542,40.21464 -5.327,11.47621 c -6.5046,14.01333 -19.0943,28.33951 -28.2298,32.12356 -5.2238,2.16377 -8.7402,2.22842 -15.2428,0.28019 -15.7045,-4.70512 -15.9802,-5.47269 -23.5566,-65.57987 -3.0138,-23.90994 -7.763,-39.70542 -11.9382,-39.70542 -5.8262,0 -7.3487,11.5195 -8.7051,65.86639 l -1.4183,56.82174 -10.2503,3.21532 c -11.4084,3.57846 -25.7753,5.44339 -32.5797,4.22905 z m 34.0723,-123.42167 c 4.0027,-2.44034 9.2742,-7.71191 11.7146,-11.71445 15.9142,-26.10139 -15.7984,-57.81387 -41.8998,-41.89974 -9.4024,5.73287 -16.1515,16.93437 -16.1515,26.80709 0,15.75261 15.4916,31.24418 31.2442,31.24418 4.2983,0 11.09,-1.99667 15.0925,-4.43708 z"
       id="path122"
       sodipodi:nodetypes="csssscssssccccsssssscsssssccsssssscssssccccsssssscsssssscsccssssss"
       inkscape:export-filename="path1.png"
       inkscape:export-xdpi="96"
       inkscape:export-ydpi="96" /><path
       style="fill:#000000;stroke-width:8.43938;filter:url(#filter29)"
       d="m 1686.0941,79.209096 c -12.5769,-2.24462 -14.994,-3.53601 -19.0408,-10.17299 -8.5339,-13.99637 -6.4087,-21.087313 13.9843,-46.659373 24.4114,-30.61106 32.9679,-43.60863 32.9679,-50.07884 0,-12.56354 -9.1077,-6.25282 -50.2186,34.79622 l -40.2146,40.15422 -11.3106,-5.25022 c -30.1669,-14.00303 -41.5229,-35.84861 -27.7421,-53.36792 5.3643,-6.81969 6.9052,-7.21195 45.7514,-11.64659 34.6387,-3.95436 44.9047,-6.14547 51.4262,-10.97634 4.3699,-3.23701 4.3694,-3.27794 -0.068,-6.67344 -3.3949,-2.59713 -10.6233,-3.43542 -30.1444,-3.49559 -14.1232,-0.0422 -39.9679,-0.73254 -57.4326,-1.53183 l -31.754,-1.45267 -3.6936,-11.12032 c -4.2672,-12.84743 -4.8744,-36.59212 -1.1153,-43.616053 3.4365,-6.4211 13.8306,-11.56245 23.3757,-11.56245 6.3558,0 11.9124,3.31608 30.8135,18.389233 30.6111,24.41132 43.6086,32.96792 50.0789,32.96792 12.5635,0 6.2528,-9.10777 -34.7963,-50.218683 l -40.1542,-40.21456 5.327,-11.47621 c 6.5046,-14.01333 19.0943,-28.33951 28.2299,-32.12356 5.2238,-2.16377 8.7401,-2.22842 15.2427,-0.28019 15.7045,4.70513 15.9802,5.47269 23.5566,65.57987 3.056,24.24448 7.7669,39.705343 12.098,39.705343 6.2401,0 9.188,-29.357903 9.2308,-91.928373 l 0.017,-30.52321 11.1266,-3.69568 c 12.9029,-4.28569 37.4421,-5.01139 44.3549,-1.31182 6.3697,3.409 11.506,13.83037 11.506,23.34551 0,6.35578 -3.316,11.91235 -18.3892,30.81352 -24.4113,30.61106 -32.9679,43.60854 -32.9679,50.07884 0,12.56354 9.1078,6.25282 50.2187,-34.79631 l 40.2145,-40.15414 11.3107,5.25023 c 30.1669,14.00303 41.5227,35.84862 27.7421,53.36792 -5.3644,6.81969 -6.9053,7.21195 -45.7515,11.64659 -34.6387,3.95427 -44.9046,6.14547 -51.4261,10.97634 -4.3699,3.23701 -4.3695,3.27794 0.067,6.67344 3.4267,2.621443 10.7483,3.432893 31.466,3.487403 14.8501,0.0422 40.6946,0.72748 57.4322,1.53049 l 30.4319,1.4595 3.6645,11.03272 c 4.1552,12.51011 4.7321,37.00439 1.0342,43.91387 -3.3354,6.23232 -13.8309,11.35493 -23.2646,11.35493 -6.3558,0 -11.9123,-3.31608 -30.8135,-18.38923 -30.6111,-24.41141 -43.6086,-32.96792 -50.0789,-32.96792 -12.5635,0 -6.2528,9.10777 34.7964,50.2186 l 40.1541,40.21464 -5.3269,11.47621 c -6.5047,14.01333 -19.0944,28.3395 -28.2299,32.123553 -5.2238,2.16377 -8.7402,2.22842 -15.2428,0.28019 -15.7044,-4.705123 -15.9802,-5.472693 -23.5566,-65.579863 -3.0138,-23.90994 -7.763,-39.70542 -11.9382,-39.70542 -5.8262,0 -7.3487,11.5195 -8.7051,65.86639 l -1.4183,56.821733 -10.2503,3.21532 c -11.4084,3.57846 -25.7752,5.44339 -32.5797,4.22905 z m 34.0724,-123.421663 c 4.0026,-2.44034 9.2741,-7.71191 11.7145,-11.71445 15.9142,-26.10139 -15.7984,-57.813873 -41.8998,-41.89974 -9.4024,5.73287 -16.1515,16.93437 -16.1515,26.80709 0,15.75261 15.4916,31.24418 31.2442,31.24418 4.2983,0 11.09,-1.99667 15.0926,-4.43708 z"
       id="path123"
       sodipodi:nodetypes="csssscssssccccsssssscsssssccsssssscssssccccsssssscsssssscsccssssss"
       inkscape:export-filename="path1.png"
       inkscape:export-xdpi="96"
       inkscape:export-ydpi="96" /><g
       id="g131"
       transform="translate(380.65636,273.64453)"><g
         id="g132"
         transform="translate(-524.77379,21.788433)"><path
           style="fill:url(#linearGradient13);fill-opacity:1;stroke-width:8.43938"
           d="m 776.49351,767.06632 c -12.57687,-2.24462 -14.99399,-3.53601 -19.04076,-10.17299 -8.5339,-13.99637 -6.40869,-21.08731 13.9843,-46.65938 24.41141,-30.61106 32.96793,-43.60863 32.96793,-50.07884 0,-12.56354 -9.10778,-6.25282 -50.2186,34.79622 l -40.21465,40.15423 -11.31062,-5.25023 c -30.1669,-14.00303 -41.52284,-35.84861 -27.7421,-53.36792 5.36433,-6.81969 6.90527,-7.21195 45.75147,-11.64659 34.63867,-3.95436 44.90467,-6.14547 51.4262,-10.97634 4.36982,-3.23701 4.3694,-3.27794 -0.0675,-6.67344 -3.39499,-2.59713 -10.62332,-3.43542 -30.14444,-3.49559 -14.12322,-0.0422 -39.96788,-0.73254 -57.43258,-1.53183 l -31.754,-1.45267 -3.69358,-11.12032 c -4.2672,-12.84743 -4.87442,-36.59212 -1.11535,-43.61605 3.43652,-6.4211 13.83062,-11.56245 23.37572,-11.56245 6.35578,0 11.91235,3.31608 30.81352,18.38923 30.61106,24.41132 43.60854,32.96792 50.07885,32.96792 12.56353,0 6.25281,-9.10777 -34.79632,-50.21868 l -40.15413,-40.21456 5.32693,-11.47621 c 6.50465,-14.01333 19.09435,-28.33951 28.22989,-32.12356 5.2238,-2.16377 8.74015,-2.22842 15.24278,-0.28019 15.70442,4.70513 15.98013,5.47269 23.55658,65.57987 3.05598,24.24448 7.76684,39.70534 12.09802,39.70534 6.24007,0 9.18795,-29.3579 9.23074,-91.92837 l 0.0169,-30.52321 11.12665,-3.69568 c 12.90288,-4.28569 37.44206,-5.01139 44.35484,-1.31182 6.36978,3.409 11.50607,13.83037 11.50607,23.34551 0,6.35578 -3.31608,11.91235 -18.38923,30.81352 -24.41132,30.61106 -32.96792,43.60854 -32.96792,50.07884 0,12.56354 9.10777,6.25282 50.21868,-34.79631 l 40.21462,-40.15414 11.3106,5.25023 c 30.1669,14.00303 41.5227,35.84862 27.7421,53.36792 -5.3644,6.81969 -6.9053,7.21195 -45.7515,11.64659 -34.63868,3.95427 -44.90459,6.14547 -51.42612,10.97634 -4.36991,3.23701 -4.36949,3.27794 0.0675,6.67344 3.42672,2.62144 10.7483,3.43289 31.46602,3.4874 14.8501,0.0422 40.6946,0.72748 57.4322,1.53049 l 30.4319,1.4595 3.6645,11.03272 c 4.1552,12.51011 4.7321,37.00439 1.0342,43.91387 -3.3354,6.23232 -13.8309,11.35493 -23.2646,11.35493 -6.3558,0 -11.9123,-3.31608 -30.8135,-18.38923 -30.611,-24.41141 -43.60856,-32.96792 -50.07886,-32.96792 -12.56353,0 -6.25282,9.10777 34.79636,50.2186 l 40.1541,40.21464 -5.3269,11.47621 c -6.5047,14.01333 -19.0944,28.33951 -28.2299,32.12356 -5.2238,2.16377 -8.7402,2.22842 -15.2428,0.28019 -15.7044,-4.70512 -15.9801,-5.47269 -23.55659,-65.57987 -3.01379,-23.90994 -7.76297,-39.70542 -11.93818,-39.70542 -5.82621,0 -7.34867,11.5195 -8.70513,65.86639 l -1.41824,56.82174 -10.25038,3.21532 c -11.40835,3.57846 -25.77521,5.44339 -32.57963,4.22905 z m 34.07238,-123.42167 c 4.00263,-2.44034 9.27412,-7.71191 11.71453,-11.71445 15.91422,-26.10139 -15.79834,-57.81387 -41.89974,-41.89974 -9.40248,5.73287 -16.15153,16.93437 -16.15153,26.80709 0,15.75261 15.49157,31.24418 31.24418,31.24418 4.29834,0 11.09002,-1.99667 15.09256,-4.43708 z"
           id="path2"
           sodipodi:nodetypes="csssscssssccccsssssscsssssccsssssscssssccccsssssscsssssscsccssssss"
           inkscape:export-filename="path1.png"
           inkscape:export-xdpi="96"
           inkscape:export-ydpi="96" /><path
           style="fill:#000000;stroke-width:8.43938;filter:url(#filter130)"
           d="m 776.49351,767.06632 c -12.57687,-2.24462 -14.99399,-3.53601 -19.04076,-10.17299 -8.5339,-13.99637 -6.40869,-21.08731 13.9843,-46.65938 24.41141,-30.61106 32.96793,-43.60863 32.96793,-50.07884 0,-12.56354 -9.10778,-6.25282 -50.2186,34.79622 l -40.21465,40.15423 -11.31062,-5.25023 c -30.1669,-14.00303 -41.52284,-35.84861 -27.7421,-53.36792 5.36433,-6.81969 6.90527,-7.21195 45.75147,-11.64659 34.63867,-3.95436 44.90467,-6.14547 51.4262,-10.97634 4.36982,-3.23701 4.3694,-3.27794 -0.0675,-6.67344 -3.39499,-2.59713 -10.62332,-3.43542 -30.14444,-3.49559 -14.12322,-0.0422 -39.96788,-0.73254 -57.43258,-1.53183 l -31.754,-1.45267 -3.69358,-11.12032 c -4.2672,-12.84743 -4.87442,-36.59212 -1.11535,-43.61605 3.43652,-6.4211 13.83062,-11.56245 23.37572,-11.56245 6.35578,0 11.91235,3.31608 30.81352,18.38923 30.61106,24.41132 43.60854,32.96792 50.07885,32.96792 12.56353,0 6.25281,-9.10777 -34.79632,-50.21868 l -40.15413,-40.21456 5.32693,-11.47621 c 6.50465,-14.01333 19.09435,-28.33951 28.22989,-32.12356 5.2238,-2.16377 8.74015,-2.22842 15.24278,-0.28019 15.70442,4.70513 15.98013,5.47269 23.55658,65.57987 3.05598,24.24448 7.76684,39.70534 12.09802,39.70534 6.24007,0 9.18795,-29.3579 9.23074,-91.92837 l 0.0169,-30.52321 11.12665,-3.69568 c 12.90288,-4.28569 37.44206,-5.01139 44.35484,-1.31182 6.36978,3.409 11.50607,13.83037 11.50607,23.34551 0,6.35578 -3.31608,11.91235 -18.38923,30.81352 -24.41132,30.61106 -32.96792,43.60854 -32.96792,50.07884 0,12.56354 9.10777,6.25282 50.21868,-34.79631 l 40.21462,-40.15414 11.3106,5.25023 c 30.1669,14.00303 41.5227,35.84862 27.7421,53.36792 -5.3644,6.81969 -6.9053,7.21195 -45.7515,11.64659 -34.63868,3.95427 -44.90459,6.14547 -51.42612,10.97634 -4.36991,3.23701 -4.36949,3.27794 0.0675,6.67344 3.42672,2.62144 10.7483,3.43289 31.46602,3.4874 14.8501,0.0422 40.6946,0.72748 57.4322,1.53049 l 30.4319,1.4595 3.6645,11.03272 c 4.1552,12.51011 4.7321,37.00439 1.0342,43.91387 -3.3354,6.23232 -13.8309,11.35493 -23.2646,11.35493 -6.3558,0 -11.9123,-3.31608 -30.8135,-18.38923 -30.611,-24.41141 -43.60856,-32.96792 -50.07886,-32.96792 -12.56353,0 -6.25282,9.10777 34.79636,50.2186 l 40.1541,40.21464 -5.3269,11.47621 c -6.5047,14.01333 -19.0944,28.33951 -28.2299,32.12356 -5.2238,2.16377 -8.7402,2.22842 -15.2428,0.28019 -15.7044,-4.70512 -15.9801,-5.47269 -23.55659,-65.57987 -3.01379,-23.90994 -7.76297,-39.70542 -11.93818,-39.70542 -5.82621,0 -7.34867,11.5195 -8.70513,65.86639 l -1.41824,56.82174 -10.25038,3.21532 c -11.40835,3.57846 -25.77521,5.44339 -32.57963,4.22905 z m 34.07238,-123.42167 c 4.00263,-2.44034 9.27412,-7.71191 11.71453,-11.71445 15.91422,-26.10139 -15.79834,-57.81387 -41.89974,-41.89974 -9.40248,5.73287 -16.15153,16.93437 -16.15153,26.80709 0,15.75261 15.49157,31.24418 31.24418,31.24418 4.29834,0 11.09002,-1.99667 15.09256,-4.43708 z"
           id="path124"
           sodipodi:nodetypes="csssscssssccccsssssscsssssccsssssscssssccccsssssscsssssscsccssssss"
           inkscape:export-filename="path1.png"
           inkscape:export-xdpi="96"
           inkscape:export-ydpi="96" /></g></g><path
       style="fill:#000000;stroke-width:8.43938"
       d="m 186.3997,-188.32047 c -12.57687,-2.24462 -14.99399,-3.53601 -19.04076,-10.17299 -8.5339,-13.99637 -6.40869,-21.08731 13.9843,-46.65938 24.41141,-30.61106 32.96793,-43.60863 32.96793,-50.07884 0,-12.56354 -9.10778,-6.25282 -50.2186,34.79622 l -40.21465,40.15423 -11.31062,-5.25023 c -30.166896,-14.00303 -41.522835,-35.84861 -27.742096,-53.36792 5.36433,-6.81969 6.90527,-7.21195 45.751466,-11.64659 34.63867,-3.95436 44.90467,-6.14547 51.4262,-10.97634 4.36982,-3.23701 4.3694,-3.27794 -0.0675,-6.67344 -3.39499,-2.59713 -10.62332,-3.43542 -30.14444,-3.49559 -14.12322,-0.0422 -39.96788,-0.73254 -57.432576,-1.53183 l -31.754006,-1.45267 -3.693578,-11.12032 c -4.267203,-12.84743 -4.874416,-36.59212 -1.115349,-43.61605 3.436515,-6.4211 13.830621,-11.56245 23.375723,-11.56245 6.35578,0 11.91235,3.31608 30.813516,18.38923 30.61106,24.41132 43.60854,32.96792 50.07885,32.96792 12.56353,0 6.25281,-9.10777 -34.79632,-50.21868 l -40.154126,-40.21456 5.32693,-11.47621 c 6.50465,-14.01333 19.094346,-28.33951 28.229886,-32.12356 5.2238,-2.16377 8.74015,-2.22842 15.24278,-0.28019 15.70442,4.70513 15.98013,5.47269 23.55658,65.57987 3.05598,24.24448 7.76684,39.70534 12.09802,39.70534 6.24007,0 9.18795,-29.3579 9.23074,-91.92837 l 0.0169,-30.52321 11.12665,-3.69568 c 12.90288,-4.28569 37.44206,-5.01139 44.35484,-1.31182 6.36978,3.409 11.50607,13.83037 11.50607,23.34551 0,6.35578 -3.31608,11.91235 -18.38923,30.81352 -24.41132,30.61106 -32.96792,43.60854 -32.96792,50.07884 0,12.56354 9.10777,6.25282 50.21868,-34.79631 l 40.21458,-40.15414 11.31062,5.25023 c 30.1669,14.00303 41.52275,35.84862 27.74209,53.36792 -5.3644,6.81969 -6.90526,7.21195 -45.75146,11.64659 -34.63869,3.95427 -44.9046,6.14547 -51.42613,10.97634 -4.36991,3.23701 -4.36949,3.27794 0.0675,6.67344 3.42672,2.62144 10.7483,3.43289 31.46605,3.4874 14.85011,0.0422 40.69461,0.72748 57.43217,1.53049 l 30.43189,1.4595 3.66455,11.03272 c 4.15513,12.51011 4.73204,37.00439 1.03416,43.91387 -3.33541,6.23232 -13.83087,11.35493 -23.26458,11.35493 -6.35578,0 -11.91235,-3.31608 -30.81352,-18.38923 -30.61105,-24.41141 -43.60856,-32.96792 -50.07886,-32.96792 -12.56353,0 -6.25282,9.10777 34.79633,50.2186 l 40.15414,40.21464 -5.32694,11.47621 c -6.50465,14.01333 -19.09434,28.33951 -28.22988,32.12356 -5.22381,2.16377 -8.74016,2.22842 -15.24279,0.28019 -15.70443,-4.70512 -15.98014,-5.47269 -23.55659,-65.57987 -3.01379,-23.90994 -7.76297,-39.70542 -11.93818,-39.70542 -5.82621,0 -7.34867,11.5195 -8.70513,65.86639 l -1.41824,56.82174 -10.25038,3.21532 c -11.40835,3.57846 -25.77521,5.44339 -32.57963,4.22905 z m 34.07238,-123.42167 c 4.00263,-2.44034 9.27412,-7.71191 11.71453,-11.71445 15.91422,-26.10139 -15.79834,-57.81387 -41.89974,-41.89974 -9.40248,5.73287 -16.15153,16.93437 -16.15153,26.80709 0,15.75261 15.49157,31.24418 31.24418,31.24418 4.29834,0 11.09002,-1.99667 15.09256,-4.43708 z"
       id="path130"
       sodipodi:nodetypes="csssscssssccccsssssscsssssccsssssscssssccccsssssscsssssscsccssssss"
       inkscape:export-filename="path1.png"
       inkscape:export-xdpi="96"
       inkscape:export-ydpi="96" /><path
       style="fill:#000000;stroke-width:8.43938;filter:url(#filter130)"
       d="m 1328.698,442.52475 c -12.5769,-2.24462 -14.994,-3.53601 -19.0408,-10.17299 -8.5339,-13.99637 -6.4087,-21.08731 13.9843,-46.65938 24.4114,-30.61106 32.968,-43.60863 32.968,-50.07884 0,-12.56354 -9.1078,-6.25282 -50.2186,34.79622 l -40.2147,40.15423 -11.3106,-5.25023 c -30.1669,-14.00303 -41.5229,-35.84861 -27.7421,-53.36792 5.3643,-6.81969 6.9053,-7.21195 45.7515,-11.64659 34.6386,-3.95436 44.9046,-6.14547 51.4262,-10.97634 4.3698,-3.23701 4.3694,-3.27794 -0.068,-6.67344 -3.395,-2.59713 -10.6234,-3.43542 -30.1445,-3.49559 -14.1232,-0.0422 -39.9679,-0.73254 -57.4326,-1.53183 l -31.754,-1.45267 -3.6935,-11.12032 c -4.2672,-12.84743 -4.8745,-36.59212 -1.1154,-43.61605 3.4365,-6.4211 13.8306,-11.56245 23.3757,-11.56245 6.3558,0 11.9124,3.31608 30.8135,18.38923 30.6111,24.41132 43.6086,32.96792 50.0789,32.96792 12.5635,0 6.2528,-9.10777 -34.7963,-50.21868 l -40.1542,-40.21456 5.327,-11.47621 c 6.5046,-14.01333 19.0943,-28.33951 28.2299,-32.12356 5.2238,-2.16377 8.7401,-2.22842 15.2427,-0.28019 15.7045,4.70513 15.9802,5.47269 23.5566,65.57987 3.056,24.24448 7.7669,39.70534 12.098,39.70534 6.2401,0 9.188,-29.3579 9.2308,-91.92837 l 0.017,-30.52321 11.1266,-3.69568 c 12.9029,-4.28569 37.4421,-5.01139 44.3549,-1.31182 6.3698,3.409 11.506,13.83037 11.506,23.34551 0,6.35578 -3.316,11.91235 -18.3892,30.81352 -24.4113,30.61106 -32.9679,43.60854 -32.9679,50.07884 0,12.56354 9.1078,6.25282 50.2187,-34.79631 l 40.2146,-40.15414 11.3106,5.25023 c 30.1669,14.00303 41.5227,35.84862 27.7421,53.36792 -5.3644,6.81969 -6.9053,7.21195 -45.7515,11.64659 -34.6387,3.95427 -44.9046,6.14547 -51.4261,10.97634 -4.3699,3.23701 -4.3695,3.27794 0.068,6.67344 3.4267,2.62144 10.7483,3.43289 31.466,3.4874 14.8501,0.0422 40.6946,0.72748 57.4322,1.53049 l 30.4319,1.4595 3.6645,11.03272 c 4.1552,12.51011 4.7321,37.00439 1.0342,43.91387 -3.3354,6.23232 -13.8309,11.35493 -23.2646,11.35493 -6.3558,0 -11.9123,-3.31608 -30.8135,-18.38923 -30.611,-24.41141 -43.6086,-32.96792 -50.0789,-32.96792 -12.5635,0 -6.2528,9.10777 34.7964,50.2186 l 40.1541,40.21464 -5.3269,11.47621 c -6.5047,14.01333 -19.0944,28.33951 -28.2299,32.12356 -5.2238,2.16377 -8.7402,2.22842 -15.2428,0.28019 -15.7044,-4.70512 -15.9801,-5.47269 -23.5566,-65.57987 -3.0138,-23.90994 -7.763,-39.70542 -11.9382,-39.70542 -5.8262,0 -7.3486,11.5195 -8.7051,65.86639 l -1.4182,56.82174 -10.2504,3.21532 c -11.4084,3.57846 -25.7752,5.44339 -32.5797,4.22905 z m 34.0724,-123.42167 c 4.0026,-2.44034 9.2741,-7.71191 11.7145,-11.71445 15.9142,-26.10139 -15.7983,-57.81387 -41.8997,-41.89974 -9.4025,5.73287 -16.1516,16.93437 -16.1516,26.80709 0,15.75261 15.4916,31.24418 31.2442,31.24418 4.2983,0 11.09,-1.99667 15.0926,-4.43708 z"
       id="path131"
       sodipodi:nodetypes="csssscssssccccsssssscsssssccsssssscssssccccsssssscsssssscsccssssss"
       inkscape:export-filename="path1.png"
       inkscape:export-xdpi="96"
       inkscape:export-ydpi="96" /><ellipse
       style="opacity:0.566942;fill:#ffffff;fill-opacity:1;stroke:none;stroke-width:1.51158"
       id="ellipse151"
       cx="-39.705578"
       cy="900.59888"
       rx="275.07901"
       ry="274.40891" /><path
       style="fill:url(#linearGradient155);stroke-width:8.43938"
       d="m -58.613654,1050.4993 c -12.5769,-2.2446 -14.994,-3.536 -19.0408,-10.173 -8.5339,-13.9963 -6.4087,-21.0873 13.9843,-46.6593 24.4114,-30.61114 32.9679,-43.60872 32.9679,-50.07893 0,-12.56354 -9.1077,-6.25282 -50.2186,34.79619 l -40.214596,40.15434 -11.3106,-5.2503 c -30.1669,-14.003 -41.5229,-35.84864 -27.7421,-53.36793 5.3643,-6.81969 6.9052,-7.21195 45.7514,-11.64659 34.638696,-3.95436 44.904696,-6.14547 51.426196,-10.97634 4.3699,-3.23701 4.3694,-3.27794 -0.068,-6.67344 -3.395,-2.59713 -10.6233,-3.43542 -30.1444,-3.49559 -14.123196,-0.0422 -39.967896,-0.73254 -57.432596,-1.53183 l -31.754,-1.45267 -3.6936,-11.12032 c -4.2672,-12.84743 -4.8744,-36.59212 -1.1153,-43.61605 3.4365,-6.4211 13.8306,-11.56245 23.3757,-11.56245 6.3558,0 11.9124,3.31608 30.8135,18.38923 30.6111,24.41132 43.608596,32.96792 50.078896,32.96792 12.5635,0 6.2528,-9.10777 -34.796296,-50.21868 l -40.1542,-40.21456 5.327,-11.47621 c 6.5046,-14.01333 19.0943,-28.33951 28.2298,-32.12356 5.2238,-2.16377 8.7402,-2.22842 15.2428,-0.28019 15.704396,4.70513 15.980196,5.47269 23.556596,65.57987 3.056,24.24448 7.7668,39.70534 12.098,39.70534 6.2401,0 9.188,-29.3579 9.2308,-91.92837 l 0.017,-30.52321 11.1266,-3.69568 c 12.9029,-4.28569 37.4421,-5.01139 44.3549,-1.31182 6.3697,3.409 11.506,13.83037 11.506,23.34551 0,6.35578 -3.31610001,11.91235 -18.3892,30.81352 -24.4113,30.61106 -32.9679,43.60854 -32.9679,50.07884 0,12.56354 9.1077,6.25282 50.2187,-34.79631 l 40.2145,-40.15414 11.3107,5.25023 c 30.1669,14.00303 41.5227,35.84862 27.742,53.36792 -5.3644,6.81969 -6.9052,7.21195 -45.7514,11.64659 -34.63870001,3.95427 -44.9046,6.14547 -51.4261,10.97634 -4.37,3.23701 -4.3695,3.27794 0.067,6.67344 3.4267,2.62144 10.7483,3.43289 31.466,3.4874 14.8501,0.0422 40.6946,0.72748 57.4322,1.53049 l 30.431904,1.4595 3.6645,11.03272 c 4.1551,12.51011 4.7321,37.00439 1.0342,43.91387 -3.3354,6.23232 -13.830904,11.35493 -23.264604,11.35493 -6.3558,0 -11.9124,-3.31608 -30.8135,-18.38923 -30.6111,-24.41141 -43.6086,-32.96792 -50.0789,-32.96792 -12.5635,0 -6.2528,9.10777 34.7963,50.2186 l 40.1542,40.21469 -5.327,11.47624 c -6.5046,14.0133 -19.0943,28.3395 -28.2298,32.1235 -5.2238,2.1638 -8.7402,2.2284 -15.2428,0.2802 -15.7045,-4.7051 -15.9802,-5.4727 -23.5566,-65.5799 -3.0138,-23.90994 -7.763,-39.70542 -11.9382,-39.70542 -5.8262,0 -7.3487,11.5195 -8.7051,65.86638 l -1.4183,56.82184 -10.2503,3.2153 c -11.4084,3.5784 -25.7753,5.4434 -32.5797,4.229 z m 34.0723,-123.42169 c 4.0027,-2.44034 9.2742,-7.71191 11.7146,-11.71445 15.9142,-26.10139 -15.7984,-57.81387 -41.8998,-41.89974 -9.4024,5.73287 -16.1515,16.93437 -16.1515,26.80709 0,15.75261 15.4916,31.24418 31.2442,31.24418 4.2983,0 11.09,-1.99667 15.0925,-4.43708 z"
       id="path151"
       sodipodi:nodetypes="csssscssssccccsssssscsssssccsssssscssssccccsssssscsssssscsccssssss"
       inkscape:export-filename="path1.png"
       inkscape:export-xdpi="96"
       inkscape:export-ydpi="96" /><g
       id="g154"
       transform="translate(-310.33431,261.64453)"><g
         id="g153"
         transform="translate(-524.77379,21.788433)"><path
           style="fill:url(#linearGradient154);fill-opacity:1;stroke-width:8.43938"
           d="m 776.49351,767.06632 c -12.57687,-2.24462 -14.99399,-3.53601 -19.04076,-10.17299 -8.5339,-13.99637 -6.40869,-21.08731 13.9843,-46.65938 24.41141,-30.61106 32.96793,-43.60863 32.96793,-50.07884 0,-12.56354 -9.10778,-6.25282 -50.2186,34.79622 l -40.21465,40.15423 -11.31062,-5.25023 c -30.1669,-14.00303 -41.52284,-35.84861 -27.7421,-53.36792 5.36433,-6.81969 6.90527,-7.21195 45.75147,-11.64659 34.63867,-3.95436 44.90467,-6.14547 51.4262,-10.97634 4.36982,-3.23701 4.3694,-3.27794 -0.0675,-6.67344 -3.39499,-2.59713 -10.62332,-3.43542 -30.14444,-3.49559 -14.12322,-0.0422 -39.96788,-0.73254 -57.43258,-1.53183 l -31.754,-1.45267 -3.69358,-11.12032 c -4.2672,-12.84743 -4.87442,-36.59212 -1.11535,-43.61605 3.43652,-6.4211 13.83062,-11.56245 23.37572,-11.56245 6.35578,0 11.91235,3.31608 30.81352,18.38923 30.61106,24.41132 43.60854,32.96792 50.07885,32.96792 12.56353,0 6.25281,-9.10777 -34.79632,-50.21868 l -40.15413,-40.21456 5.32693,-11.47621 c 6.50465,-14.01333 19.09435,-28.33951 28.22989,-32.12356 5.2238,-2.16377 8.74015,-2.22842 15.24278,-0.28019 15.70442,4.70513 15.98013,5.47269 23.55658,65.57987 3.05598,24.24448 7.76684,39.70534 12.09802,39.70534 6.24007,0 9.18795,-29.3579 9.23074,-91.92837 l 0.0169,-30.52321 11.12665,-3.69568 c 12.90288,-4.28569 37.44206,-5.01139 44.35484,-1.31182 6.36978,3.409 11.50607,13.83037 11.50607,23.34551 0,6.35578 -3.31608,11.91235 -18.38923,30.81352 -24.41132,30.61106 -32.96792,43.60854 -32.96792,50.07884 0,12.56354 9.10777,6.25282 50.21868,-34.79631 l 40.21462,-40.15414 11.3106,5.25023 c 30.1669,14.00303 41.5227,35.84862 27.7421,53.36792 -5.3644,6.81969 -6.9053,7.21195 -45.7515,11.64659 -34.63868,3.95427 -44.90459,6.14547 -51.42612,10.97634 -4.36991,3.23701 -4.36949,3.27794 0.0675,6.67344 3.42672,2.62144 10.7483,3.43289 31.46602,3.4874 14.8501,0.0422 40.6946,0.72748 57.4322,1.53049 l 30.4319,1.4595 3.6645,11.03272 c 4.1552,12.51011 4.7321,37.00439 1.0342,43.91387 -3.3354,6.23232 -13.8309,11.35493 -23.2646,11.35493 -6.3558,0 -11.9123,-3.31608 -30.8135,-18.38923 -30.611,-24.41141 -43.60856,-32.96792 -50.07886,-32.96792 -12.56353,0 -6.25282,9.10777 34.79636,50.2186 l 40.1541,40.21464 -5.3269,11.47621 c -6.5047,14.01333 -19.0944,28.33951 -28.2299,32.12356 -5.2238,2.16377 -8.7402,2.22842 -15.2428,0.28019 -15.7044,-4.70512 -15.9801,-5.47269 -23.55659,-65.57987 -3.01379,-23.90994 -7.76297,-39.70542 -11.93818,-39.70542 -5.82621,0 -7.34867,11.5195 -8.70513,65.86639 l -1.41824,56.82174 -10.25038,3.21532 c -11.40835,3.57846 -25.77521,5.44339 -32.57963,4.22905 z m 34.07238,-123.42167 c 4.00263,-2.44034 9.27412,-7.71191 11.71453,-11.71445 15.91422,-26.10139 -15.79834,-57.81387 -41.89974,-41.89974 -9.40248,5.73287 -16.15153,16.93437 -16.15153,26.80709 0,15.75261 15.49157,31.24418 31.24418,31.24418 4.29834,0 11.09002,-1.99667 15.09256,-4.43708 z"
           id="path152"
           sodipodi:nodetypes="csssscssssccccsssssscsssssccsssssscssssccccsssssscsssssscsccssssss"
           inkscape:export-filename="path1.png"
           inkscape:export-xdpi="96"
           inkscape:export-ydpi="96" /><path
           style="fill:#000000;stroke-width:8.43938;filter:url(#filter130)"
           d="m 776.49351,767.06632 c -12.57687,-2.24462 -14.99399,-3.53601 -19.04076,-10.17299 -8.5339,-13.99637 -6.40869,-21.08731 13.9843,-46.65938 24.41141,-30.61106 32.96793,-43.60863 32.96793,-50.07884 0,-12.56354 -9.10778,-6.25282 -50.2186,34.79622 l -40.21465,40.15423 -11.31062,-5.25023 c -30.1669,-14.00303 -41.52284,-35.84861 -27.7421,-53.36792 5.36433,-6.81969 6.90527,-7.21195 45.75147,-11.64659 34.63867,-3.95436 44.90467,-6.14547 51.4262,-10.97634 4.36982,-3.23701 4.3694,-3.27794 -0.0675,-6.67344 -3.39499,-2.59713 -10.62332,-3.43542 -30.14444,-3.49559 -14.12322,-0.0422 -39.96788,-0.73254 -57.43258,-1.53183 l -31.754,-1.45267 -3.69358,-11.12032 c -4.2672,-12.84743 -4.87442,-36.59212 -1.11535,-43.61605 3.43652,-6.4211 13.83062,-11.56245 23.37572,-11.56245 6.35578,0 11.91235,3.31608 30.81352,18.38923 30.61106,24.41132 43.60854,32.96792 50.07885,32.96792 12.56353,0 6.25281,-9.10777 -34.79632,-50.21868 l -40.15413,-40.21456 5.32693,-11.47621 c 6.50465,-14.01333 19.09435,-28.33951 28.22989,-32.12356 5.2238,-2.16377 8.74015,-2.22842 15.24278,-0.28019 15.70442,4.70513 15.98013,5.47269 23.55658,65.57987 3.05598,24.24448 7.76684,39.70534 12.09802,39.70534 6.24007,0 9.18795,-29.3579 9.23074,-91.92837 l 0.0169,-30.52321 11.12665,-3.69568 c 12.90288,-4.28569 37.44206,-5.01139 44.35484,-1.31182 6.36978,3.409 11.50607,13.83037 11.50607,23.34551 0,6.35578 -3.31608,11.91235 -18.38923,30.81352 -24.41132,30.61106 -32.96792,43.60854 -32.96792,50.07884 0,12.56354 9.10777,6.25282 50.21868,-34.79631 l 40.21462,-40.15414 11.3106,5.25023 c 30.1669,14.00303 41.5227,35.84862 27.7421,53.36792 -5.3644,6.81969 -6.9053,7.21195 -45.7515,11.64659 -34.63868,3.95427 -44.90459,6.14547 -51.42612,10.97634 -4.36991,3.23701 -4.36949,3.27794 0.0675,6.67344 3.42672,2.62144 10.7483,3.43289 31.46602,3.4874 14.8501,0.0422 40.6946,0.72748 57.4322,1.53049 l 30.4319,1.4595 3.6645,11.03272 c 4.1552,12.51011 4.7321,37.00439 1.0342,43.91387 -3.3354,6.23232 -13.8309,11.35493 -23.2646,11.35493 -6.3558,0 -11.9123,-3.31608 -30.8135,-18.38923 -30.611,-24.41141 -43.60856,-32.96792 -50.07886,-32.96792 -12.56353,0 -6.25282,9.10777 34.79636,50.2186 l 40.1541,40.21464 -5.3269,11.47621 c -6.5047,14.01333 -19.0944,28.33951 -28.2299,32.12356 -5.2238,2.16377 -8.7402,2.22842 -15.2428,0.28019 -15.7044,-4.70512 -15.9801,-5.47269 -23.55659,-65.57987 -3.01379,-23.90994 -7.76297,-39.70542 -11.93818,-39.70542 -5.82621,0 -7.34867,11.5195 -8.70513,65.86639 l -1.41824,56.82174 -10.25038,3.21532 c -11.40835,3.57846 -25.77521,5.44339 -32.57963,4.22905 z m 34.07238,-123.42167 c 4.00263,-2.44034 9.27412,-7.71191 11.71453,-11.71445 15.91422,-26.10139 -15.79834,-57.81387 -41.89974,-41.89974 -9.40248,5.73287 -16.15153,16.93437 -16.15153,26.80709 0,15.75261 15.49157,31.24418 31.24418,31.24418 4.29834,0 11.09002,-1.99667 15.09256,-4.43708 z"
           id="path153"
           sodipodi:nodetypes="csssscssssccccsssssscsssssccsssssscssssccccsssssscsssssscsccssssss"
           inkscape:export-filename="path1.png"
           inkscape:export-xdpi="96"
           inkscape:export-ydpi="96" /></g></g></g></svg>
